HIERARCHY
ROOT Hips
{
  OFFSET -187.679 86.5976 -156.378
  CHANNELS 6 Xposition Yposition Zposition Zrotation Xrotation Yrotation
  JOINT LeftUpLeg
  {
    OFFSET 8.64259 1.95398 -2.38835
    CHANNELS 3 Zrotation Xrotation Yrotation
    JOINT LeftLeg
    {
      OFFSET 43.7702 0 0
      CHANNELS 3 Zrotation Xrotation Yrotation
      JOINT LeftFoot
      {
        OFFSET 40.6238 0 0
        CHANNELS 3 Zrotation Xrotation Yrotation
        JOINT LeftToeBase
        {
          OFFSET 12.7242 0 0
          CHANNELS 3 Zrotation Xrotation Yrotation
          End Site
          {
            OFFSET 0 0 0
          }
        }
      }
    }
  }
  JOINT RightUpLeg
  {
    OFFSET -8.2249 1.95398 -2.59336
    CHANNELS 3 Zrotation Xrotation Yrotation
    JOINT RightLeg
    {
      OFFSET 43.5653 0 0
      CHANNELS 3 Zrotation Xrotation Yrotation
      JOINT RightFoot
      {
        OFFSET 40.6238 0 0
        CHANNELS 3 Zrotation Xrotation Yrotation
        JOINT RightToeBase
        {
          OFFSET 12.7242 0 0
          CHANNELS 3 Zrotation Xrotation Yrotation
          End Site
          {
            OFFSET 0 0 0
          }
        }
      }
    }
  }
  JOINT Spine
  {
    OFFSET 0.165834 0.87714 6.61349
    CHANNELS 3 Zrotation Xrotation Yrotation
    JOINT Spine1
    {
      OFFSET 7.38963 1.71661e-005 0
      CHANNELS 3 Zrotation Xrotation Yrotation
      JOINT Spine2
      {
        OFFSET 11.9445 1.14441e-005 0
        CHANNELS 3 Zrotation Xrotation Yrotation
        JOINT Spine3
        {
          OFFSET 14.7254 4.19617e-005 0
          CHANNELS 3 Zrotation Xrotation Yrotation
          JOINT Spine4
          {
            OFFSET 10.9679 0 0
            CHANNELS 3 Zrotation Xrotation Yrotation
            JOINT RightShoulder
            {
              OFFSET 2.46616 -1.6653 3.69651
              CHANNELS 3 Zrotation Xrotation Yrotation
              JOINT RightArm
              {
                OFFSET 13.0012 0 0
                CHANNELS 3 Zrotation Xrotation Yrotation
                JOINT RightForeArm
                {
                  OFFSET 28.7848 1.52588e-005 0
                  CHANNELS 3 Zrotation Xrotation Yrotation
                  JOINT RightHand
                  {
                    OFFSET 26.5688 1.52588e-005 0
                    CHANNELS 3 Zrotation Xrotation Yrotation
                    End Site
                    {
                      OFFSET 0 0 0
                    }
                  }
                }
              }
            }
            JOINT LeftShoulder
            {
              OFFSET 2.38034 -1.29275 -3.7523
              CHANNELS 3 Zrotation Xrotation Yrotation
              JOINT LeftArm
              {
                OFFSET 16.3182 6.10352e-005 0
                CHANNELS 3 Zrotation Xrotation Yrotation
                JOINT LeftForeArm
                {
                  OFFSET 27.0901 0 0
                  CHANNELS 3 Zrotation Xrotation Yrotation
                  JOINT LeftHand
                  {
                    OFFSET 24.5451 1.52588e-005 0
                    CHANNELS 3 Zrotation Xrotation Yrotation
                    End Site
                    {
                      OFFSET 0 0 0
                    }
                  }
                }
              }
            }
            JOINT Neck
            {
              OFFSET 5.0226 -0.0266342 0
              CHANNELS 3 Zrotation Xrotation Yrotation
              JOINT Head
              {
                OFFSET 6.69363 2.86102e-005 0
                CHANNELS 3 Zrotation Xrotation Yrotation
                End Site
                {
                  OFFSET 0 0 0
                }
              }
            }
          }
        }
      }
    }
  }
}
MOTION
Frames:	10
Frame Time:	0.0416667
46.9952 102.673 -259.256 -115.031 -81.2109 -117.908 -173.854 -5.46547 90.1451 -10.8732 27.4042 7.89351 67.8182 5.38452 5.01235 17.5636 -5.90879 3.21748 173.64 -3.61162 89.0651 -15.9067 5.63816 2.27251 68.8554 -3.061 3.00474 25.8143 -0.818 1.14624 0.424187 7.5829 -89.7468 11.7065 0.962525 0.403681 0.0358427 0.97935 0.360926 -22.5009 0.796694 0.674302 -2.48827 0.796696 0.674305 90.3901 -46.95 -100.737 24.4017 -36.3972 -20.6081 -8.66738 -13.5591 -6.89433 -13.4814 0.256302 -7.41624 -88.8063 -45.6482 79.8447 -26.2869 29.8475 -9.92669 11.8498 4.02228 -18.2868 -3.04417 -0.0809417 -5.18108 7.41784 0.826186 -1.01848 1.49801 0.978294 -0.976524 
46.5303 102.671 -259.175 -114.456 -81.4339 -117.596 -174.272 -4.82441 89.982 -11.6707 24.8658 8.12269 68.5812 5.23588 2.66241 19.4809 -4.63671 2.30141 173.54 -3.62174 89.0791 -15.6214 4.63773 2.38883 68.555 -2.9592 1.45225 26.4237 -0.91596 1.79013 0.239499 7.53305 -89.7339 11.8067 0.601449 0.4668 0.135778 0.621408 0.439866 -22.3994 0.433353 0.625975 -2.38677 0.43335 0.625973 87.9837 -47.3793 -104.417 30.3411 -26.2406 -10.7607 -21.1117 -23.8273 -24.1156 -7.1229 -0.115359 -3.59208 -88.2995 -46.1878 80.7523 -27.4782 27.4973 -6.58707 13.1972 4.47967 -20.2504 -2.98397 -0.0989398 -2.13629 5.19602 2.1046 0.398843 3.01191 1.8828 -2.05636 
45.7715 102.739 -259.164 -113.638 -81.3036 -117.048 -174.726 -3.30354 90.1105 -14.3685 22.7523 8.69224 68.6895 4.29745 -1.07791 22.0697 -5.31405 6.62957 173.563 -3.88286 89.2272 -15.1532 4.88724 2.45651 68.4373 -3.18309 1.66377 26.4838 -0.944398 1.91597 0.279288 7.56057 -89.6726 11.7506 0.709189 0.577667 0.079751 0.73393 0.545884 -22.4552 0.502797 0.7641 -2.4426 0.502794 0.764092 87.6783 -48.3272 -104.623 29.0614 -26.8419 -11.3642 -19.302 -21.9152 -21.9457 -7.00983 -0.05786 -4.35285 -87.9281 -45.0493 81.1058 -28.0995 26.544 -6.40472 13.7132 5.20134 -20.5257 -1.26498 -0.0519699 -1.49391 4.96937 1.9032 -1.30586 2.78177 2.07604 -0.580984 
45.028 102.557 -259.173 -112.139 -81.1476 -115.852 -174.46 -3.11722 90.4733 -14.4242 22.6401 8.21976 68.8113 4.42469 -1.16245 22.7966 -4.93757 6.57341 174.075 -3.435 89.7105 -16.108 5.43038 2.05363 69.4759 -3.23213 1.85068 25.8169 -0.944759 1.55016 0.340659 7.6 -89.6379 11.6713 0.84746 0.633239 0.00051695 0.87451 0.595307 -22.5347 0.617968 0.858653 -2.52208 0.617971 0.858641 87.5935 -48.36 -104.744 28.9094 -26.2899 -11.321 -19.8552 -22.383 -22.5858 -7.59832 -0.10575 -3.63936 -87.8914 -44.5089 81.0548 -28.2206 25.1188 -6.49886 13.9858 5.4016 -20.4867 -0.229485 -0.0260584 -0.904998 4.66698 1.67403 -1.50091 3.03298 1.87233 -0.75812 
44.327 102.28 -259.146 -114.21 -81.5444 -118.263 -174.783 -1.59629 90.914 -17.4462 22.3162 7.55414 69.8638 5.2494 -1.39698 23.1342 -4.78005 6.57899 173.796 -2.80446 89.6355 -17.9775 5.22798 2.3701 70.5344 -3.30196 1.36002 25.7669 -1.13532 2.12545 0.362704 7.64892 -89.5256 11.572 0.943631 0.847982 -0.0989105 0.980032 0.805638 -22.6333 0.645164 1.09237 -2.62067 0.645159 1.09236 87.2396 -49.4372 -104.981 28.6797 -26.3322 -11.7153 -19.466 -22.3588 -21.9156 -7.94693 -0.116131 -3.5083 -87.703 -43.6894 81.1904 -28.152 23.4571 -5.95666 14.3223 5.26763 -20.92 -1.16683 -0.0556364 -1.23116 3.85007 1.21836 -3.39014 3.78117 1.82288 0.751926 
43.6413 101.748 -259.204 -120.702 -81.6914 -124.643 -175.5 1.66925 92.1958 -24.7981 21.4674 6.40368 71.3366 6.61429 -1.54185 24.5539 -4.04231 6.39018 173.487 -2.06509 89.8988 -21.5246 5.70953 2.92234 72.5086 -3.23608 1.44512 25.5711 -1.34937 2.67744 0.44208 7.80707 -89.5928 11.2562 1.06941 0.705012 -0.414452 1.09941 0.657259 -22.9503 0.808088 0.993814 -2.93768 0.808093 0.993818 87.5419 -48.5607 -104.767 29.4293 -26.9346 -11.4816 -20.0256 -24.4738 -22.5049 -8.17625 -0.20677 -2.19146 -87.7171 -45.0057 81.4316 -26.5874 22.2126 -5.73553 14.0241 3.61867 -21.7164 -1.96369 -0.077223 -1.83439 3.20925 0.881107 -1.4476 4.1807 1.06127 -0.753052 
43.034 101.493 -259.286 -129.039 -82.7955 -132.821 -177.296 8.58645 90.9438 -37.3224 22.128 8.24512 70.5099 6.29215 0.011075 19.3768 -4.82306 2.67724 173.795 -1.37714 90.4779 -23.9506 9.55689 3.15535 74.3615 -2.99266 2.63895 24.6575 -2.05727 4.34044 0.466655 7.90477 -89.6625 11.0616 1.08549 0.566913 -0.608981 1.10939 0.518586 -23.1457 0.864923 0.866949 -3.13303 0.864926 0.866944 86.9283 -48.5592 -105.713 28.7933 -27.7579 -11.5346 -19.2611 -24.1361 -21.6492 -7.63779 -0.16553 -2.62972 -87.7795 -45.9145 81.5117 -26.1005 20.4127 -4.70352 14.6079 3.01344 -24.1326 -3.32059 -0.0984056 -2.90048 2.36107 0.801156 -0.117244 5.08427 0.695825 -1.59367 
42.6058 101.412 -259.139 -131.537 -82.9003 -135.632 -178.954 14.633 89.5551 -45.8344 21.2483 8.8736 70.5505 6.06642 0.322856 15.8734 -5.88211 1.54054 173.78 -1.60377 90.5281 -24.1444 9.44692 3.09029 74.6786 -3.10385 2.41264 24.3256 -2.05905 4.15304 0.620406 8.01753 -89.7219 10.8365 1.3638 0.425496 -0.833777 1.3812 0.365046 -23.3729 1.17286 0.815743 -3.36021 1.17286 0.815739 87.6149 -47.216 -105.041 28.8059 -28.4436 -12.6914 -19.0793 -26.3182 -21.2618 -9.5563 -0.155439 -3.25853 -87.9936 -47.4167 81.469 -25.4118 19.3394 -3.56308 13.9826 1.27568 -24.8389 -3.90351 -0.0822188 -4.53907 1.14802 0.364885 1.50738 5.86816 -0.0753873 -2.79414 
42.3138 101.417 -258.417 -131.249 -82.682 -135.98 -179.965 18.1826 87.3697 -45.5336 22.1103 8.53203 69.8371 5.53402 0.10419 16.2944 -4.60037 -0.828293 173.796 -2.50443 90.1167 -23.3761 9.55628 2.72499 74.4201 -3.08174 3.17522 26.7604 -0.793388 1.57978 0.707136 8.12587 -89.6427 10.6185 1.57274 0.567865 -1.05157 1.59621 0.498069 -23.5916 1.32936 1.01433 -3.57891 1.32937 1.01433 86.5765 -47.3517 -106.624 27.6137 -29.0322 -13.9018 -18.15 -25.6557 -20.1508 -10.0297 -0.0581069 -4.52384 -87.5886 -47.9347 82.1899 -25.6592 18.3125 -1.01484 13.9837 0.487977 -26.7982 -3.84194 -0.0998225 -3.16761 0.29675 0.626042 2.50164 5.71948 -0.0109046 -3.68452 
41.6878 101.35 -256.828 -135.551 -82.1482 -139.912 -179.656 19.2317 86.402 -39.3497 26.0253 7.71002 68.7793 4.46539 -1.49506 16.7115 -6.46189 3.57482 174.264 -6.56901 90.8626 -19.1803 9.06163 2.53454 73.7081 -3.45902 2.69322 25.1747 -1.5385 3.04584 0.819448 8.27271 -89.7141 10.3274 1.76343 0.414255 -1.34236 1.77995 0.336211 -23.8849 1.55739 0.925194 -3.87228 1.55739 0.925185 87.3598 -46.1507 -105.761 28.488 -29.5797 -14.8604 -18.7901 -25.2236 -21.3292 -9.65601 -0.0104057 -5.10875 -87.9379 -48.655 81.7833 -25.8 18.0915 0.877287 13.4995 0.199913 -25.1297 -3.90204 -0.112157 -2.34466 -0.813229 0.652707 4.379 6.46337 -0.331828 -4.88798 
